<svg width="16" height="16" viewBox="0 0 16 16" fill="none" xmlns="http://www.w3.org/2000/svg">
<path d="M4.99998 6C4.87813 6.00003 4.76049 6.04456 4.66916 6.12521C4.57783 6.20587 4.51909 6.31709 4.50398 6.438L4.00398 10.438C3.99519 10.5083 4.00146 10.5797 4.02236 10.6475C4.04327 10.7152 4.07834 10.7777 4.12524 10.8309C4.17215 10.884 4.22981 10.9266 4.29442 10.9557C4.35903 10.9849 4.4291 11 4.49998 11H7.49998V13.016C6.63698 13.071 5.99998 13.267 5.99998 13.5C5.99998 13.776 6.89498 14 7.99998 14C9.10498 14 9.99998 13.776 9.99998 13.5C9.99998 13.267 9.36298 13.071 8.49998 13.016V11H11.5C11.5709 11 11.6409 10.9849 11.7055 10.9557C11.7701 10.9266 11.8278 10.884 11.8747 10.8309C11.9216 10.7777 11.9567 10.7152 11.9776 10.6475C11.9985 10.5797 12.0048 10.5083 11.996 10.438L11.496 6.438C11.4809 6.31709 11.4221 6.20587 11.3308 6.12521C11.2395 6.04456 11.1218 6.00003 11 6H4.99998ZM6.99998 9.78V7.22C6.99998 7.124 7.10598 7.064 7.18998 7.114L9.31998 8.393C9.33841 8.40413 9.35364 8.41982 9.36422 8.43857C9.3748 8.45732 9.38036 8.47848 9.38036 8.5C9.38036 8.52152 9.3748 8.54268 9.36422 8.56143C9.35364 8.58018 9.33841 8.59587 9.31998 8.607L7.18998 9.887C7.17087 9.89864 7.14898 9.90494 7.1266 9.90523C7.10422 9.90552 7.08217 9.8998 7.06276 9.88867C7.04335 9.87753 7.02728 9.86138 7.01624 9.84192C7.00519 9.82245 6.99958 9.80038 6.99998 9.778V9.78Z" fill="#FF0000"/>
<path d="M14 14V4.5L9.5 0H4C3.46957 0 2.96086 0.210714 2.58579 0.585786C2.21071 0.960859 2 1.46957 2 2V14C2 14.5304 2.21071 15.0391 2.58579 15.4142C2.96086 15.7893 3.46957 16 4 16H12C12.5304 16 13.0391 15.7893 13.4142 15.4142C13.7893 15.0391 14 14.5304 14 14ZM9.5 3C9.5 3.39782 9.65804 3.77936 9.93934 4.06066C10.2206 4.34196 10.6022 4.5 11 4.5H13V14C13 14.2652 12.8946 14.5196 12.7071 14.7071C12.5196 14.8946 12.2652 15 12 15H4C3.73478 15 3.48043 14.8946 3.29289 14.7071C3.10536 14.5196 3 14.2652 3 14V2C3 1.73478 3.10536 1.48043 3.29289 1.29289C3.48043 1.10536 3.73478 1 4 1H9.5V3Z" fill="black"/>
</svg>
