<svg width="16" height="16" viewBox="0 0 16 16" fill="none" xmlns="http://www.w3.org/2000/svg">
<path d="M12 0H4C3.46957 0 2.96086 0.210714 2.58579 0.585786C2.21071 0.960859 2 1.46957 2 2V14C2 14.5304 2.21071 15.0391 2.58579 15.4142C2.96086 15.7893 3.46957 16 4 16H12C12.5304 16 13.0391 15.7893 13.4142 15.4142C13.7893 15.0391 14 14.5304 14 14V2C14 1.46957 13.7893 0.960859 13.4142 0.585786C13.0391 0.210714 12.5304 0 12 0Z" fill="#FF0000"/>
<path fill-rule="evenodd" clip-rule="evenodd" d="M4 0H12C12.5304 0 13.0391 0.210714 13.4142 0.585786C13.7893 0.960859 14 1.46957 14 2V14C14 14.5304 13.7893 15.0391 13.4142 15.4142C13.0391 15.7893 12.5304 16 12 16H4C3.46957 16 2.96086 15.7893 2.58579 15.4142C2.21071 15.0391 2 14.5304 2 14V2C2 1.46957 2.21071 0.960859 2.58579 0.585786C2.96086 0.210714 3.46957 0 4 0ZM4.165 11.668C4.255 11.848 4.395 12.011 4.603 12.087C4.81 12.162 5.015 12.127 5.183 12.057C5.501 11.927 5.818 11.621 6.109 11.271C6.442 10.87 6.792 10.344 7.13 9.761C7.78247 9.56734 8.45071 9.43149 9.127 9.355C9.427 9.738 9.737 10.068 10.037 10.305C10.317 10.525 10.64 10.708 10.971 10.722C11.1513 10.7307 11.3297 10.6824 11.481 10.584C11.636 10.483 11.751 10.337 11.835 10.168C11.925 9.987 11.98 9.798 11.973 9.605C11.967 9.41465 11.8965 9.232 11.773 9.087C11.547 8.817 11.177 8.687 10.813 8.622C10.3714 8.55397 9.92344 8.53719 9.478 8.572C9.10206 8.04012 8.77411 7.47591 8.498 6.886C8.748 6.226 8.935 5.602 9.018 5.092C9.054 4.874 9.073 4.666 9.066 4.478C9.06469 4.2914 9.02128 4.10749 8.939 3.94C8.89156 3.84758 8.82414 3.76687 8.74164 3.70374C8.65913 3.64061 8.56361 3.59663 8.462 3.575C8.26 3.532 8.052 3.575 7.861 3.652C7.484 3.802 7.285 4.122 7.21 4.475C7.137 4.815 7.17 5.211 7.256 5.611C7.344 6.017 7.494 6.459 7.686 6.906C7.37817 7.66948 7.02349 8.41323 6.624 9.133C6.10874 9.29541 5.612 9.5116 5.142 9.778C4.772 9.998 4.443 10.258 4.245 10.565C4.035 10.891 3.97 11.279 4.165 11.668Z" fill="#FFFEFE"/>
<path d="M5.52295 10.4241C5.66295 10.3414 5.81595 10.2621 5.98195 10.1861C5.84157 10.3951 5.6914 10.5973 5.53195 10.7921C5.25195 11.1291 5.03395 11.3081 4.89695 11.3641L4.86195 11.3761C4.85205 11.3622 4.84335 11.3475 4.83595 11.3321C4.77995 11.2221 4.78195 11.1161 4.87595 10.9721C4.98195 10.8071 5.19495 10.6181 5.52295 10.4241ZM7.97795 8.77711C7.85928 8.80177 7.74062 8.82777 7.62195 8.8551C7.79828 8.50979 7.96501 8.15965 8.12195 7.80511C8.27998 8.09805 8.45012 8.3843 8.63195 8.66311C8.41462 8.69511 8.19662 8.73311 7.97795 8.77711ZM10.5029 9.7161C10.3479 9.59048 10.2025 9.45343 10.0679 9.30611C10.2973 9.31077 10.5013 9.32877 10.6799 9.36011C10.9969 9.41711 11.1459 9.50711 11.1979 9.56911C11.2139 9.58667 11.2232 9.60936 11.2239 9.63311C11.2203 9.70362 11.1997 9.77222 11.1639 9.83311C11.1441 9.88199 11.1116 9.92476 11.0699 9.95711C11.0495 9.97033 11.025 9.97566 11.0009 9.97211C10.9109 9.96911 10.7429 9.9061 10.5029 9.7161ZM8.27795 4.97011C8.23795 5.21411 8.16995 5.49411 8.07795 5.79911C8.04417 5.68487 8.01448 5.56946 7.98895 5.45311C7.91295 5.10011 7.90195 4.82311 7.94295 4.63111C7.98095 4.45411 8.05295 4.38311 8.13895 4.34811C8.18499 4.32754 8.23388 4.31405 8.28395 4.30811C8.29695 4.33811 8.31195 4.40011 8.31595 4.50611C8.32128 4.62811 8.30862 4.78311 8.27795 4.97111V4.97011Z" fill="white"/>
<path d="M4 0.5H12C12.3978 0.5 12.7794 0.658035 13.0607 0.93934C13.342 1.22064 13.5 1.60218 13.5 2V14C13.5 14.3978 13.342 14.7794 13.0607 15.0607C12.7794 15.342 12.3978 15.5 12 15.5H4C3.60218 15.5 3.22064 15.342 2.93934 15.0607C2.65804 14.7794 2.5 14.3978 2.5 14V2C2.5 1.60218 2.65804 1.22064 2.93934 0.93934C3.22064 0.658035 3.60218 0.5 4 0.5Z" stroke="black"/>
</svg>
