<svg width="16" height="16" viewBox="0 0 16 16" fill="none" xmlns="http://www.w3.org/2000/svg">
<g clip-path="url(#clip0_1020_27)">
<rect x="4" y="11" width="2" height="4" fill="#FF0000"/>
<rect x="7" y="9" width="2" height="6" fill="#FF8A00"/>
<rect x="10" y="7" width="2" height="8" fill="#35C810"/>
<path d="M13.3534 4.35355L13.3535 4.35361C13.4473 4.44733 13.4999 4.57444 13.5 4.707C13.5 4.70704 13.5 4.70707 13.5 4.70711V4.79289L12.8536 4.14645L9.85355 1.14645L9.20711 0.5H9.29289C9.29293 0.5 9.29296 0.5 9.293 0.5C9.42556 0.500057 9.55267 0.55275 9.64639 0.6465L9.64645 0.646553L13.3534 4.35355ZM12.5 5H13.5V14C13.5 14.3978 13.342 14.7794 13.0607 15.0607C12.7794 15.342 12.3978 15.5 12 15.5H4C3.60218 15.5 3.22064 15.342 2.93934 15.0607C2.65804 14.7794 2.5 14.3978 2.5 14V2C2.5 1.60218 2.65804 1.22064 2.93934 0.93934C3.22064 0.658035 3.60218 0.5 4 0.5H9V1.5V3.5C9 3.89783 9.15804 4.27936 9.43934 4.56066C9.72064 4.84196 10.1022 5 10.5 5H12.5ZM9.79289 6.79289C9.60536 6.98043 9.5 7.23478 9.5 7.5V9.5C9.5 9.23479 9.39464 8.98043 9.20711 8.79289C9.01957 8.60536 8.76521 8.5 8.5 8.5H7.5C7.23478 8.5 6.98043 8.60536 6.79289 8.79289C6.60536 8.98043 6.5 9.23478 6.5 9.5V11.5C6.5 11.2348 6.39464 10.9804 6.20711 10.7929C6.01957 10.6054 5.76522 10.5 5.5 10.5H4.5C4.23478 10.5 3.98043 10.6054 3.79289 10.7929C3.60536 10.9804 3.5 11.2348 3.5 11.5V13.5C3.5 13.7652 3.60536 14.0196 3.79289 14.2071C3.98043 14.3946 4.23478 14.5 4.5 14.5H5.5C5.76522 14.5 6.01957 14.3946 6.20711 14.2071C6.39464 14.0196 6.5 13.7652 6.5 13.5C6.5 13.7652 6.60536 14.0196 6.79289 14.2071C6.98043 14.3946 7.23478 14.5 7.5 14.5H8.5C8.76521 14.5 9.01957 14.3946 9.20711 14.2071C9.39464 14.0196 9.5 13.7652 9.5 13.5C9.5 13.7652 9.60536 14.0196 9.79289 14.2071C9.98043 14.3946 10.2348 14.5 10.5 14.5H11.5C11.7652 14.5 12.0196 14.3946 12.2071 14.2071C12.3946 14.0196 12.5 13.7652 12.5 13.5V7.5C12.5 7.23478 12.3946 6.98043 12.2071 6.79289C12.0196 6.60536 11.7652 6.5 11.5 6.5H10.5C10.2348 6.5 9.98043 6.60536 9.79289 6.79289Z" fill="white" stroke="black"/>
</g>
<defs>
<clipPath id="clip0_1020_27">
<rect width="16" height="16" fill="white"/>
</clipPath>
</defs>
</svg>
