<svg width="16" height="16" viewBox="0 0 16 16" fill="none" xmlns="http://www.w3.org/2000/svg">
<path d="M14 14C14 14.5304 13.7893 15.0391 13.4142 15.4142C13.0391 15.7893 12.5304 16 12 16H4C3.46957 16 2.96086 15.7893 2.58579 15.4142C2.21071 15.0391 2 14.5304 2 14V2C2 1.46957 2.21071 0.960859 2.58579 0.585786C2.96086 0.210714 3.46957 0 4 0L9.5 0L14 4.5V14ZM4 1C3.73478 1 3.48043 1.10536 3.29289 1.29289C3.10536 1.48043 3 1.73478 3 2V12L5.224 9.776C5.30282 9.69737 5.40562 9.6473 5.51612 9.63371C5.62661 9.62013 5.73849 9.64381 5.834 9.701L8 11L10.157 7.98C10.1992 7.92098 10.2538 7.87184 10.3169 7.83602C10.38 7.80019 10.4501 7.77853 10.5224 7.77253C10.5947 7.76654 10.6675 7.77636 10.7356 7.8013C10.8038 7.82625 10.8657 7.86573 10.917 7.917L13 10V4.5H11C10.6022 4.5 10.2206 4.34196 9.93934 4.06066C9.65804 3.77936 9.5 3.39782 9.5 3V1H4Z" fill="#35C810"/>
<path d="M6.5 8C6.69698 8 6.89204 7.9612 7.07403 7.88582C7.25601 7.81044 7.42137 7.69995 7.56066 7.56066C7.69995 7.42137 7.81044 7.25601 7.88582 7.07403C7.9612 6.89204 8 6.69698 8 6.5C8 6.30302 7.9612 6.10796 7.88582 5.92597C7.81044 5.74399 7.69995 5.57863 7.56066 5.43934C7.42137 5.30005 7.25601 5.18956 7.07403 5.11418C6.89204 5.0388 6.69698 5 6.5 5C6.10218 5 5.72064 5.15804 5.43934 5.43934C5.15804 5.72064 5 6.10218 5 6.5C5 6.89782 5.15804 7.27936 5.43934 7.56066C5.72064 7.84196 6.10218 8 6.5 8Z" fill="#FF8A00"/>
<path d="M14 4.5V14C14 14.5304 13.7893 15.0391 13.4142 15.4142C13.0391 15.7893 12.5304 16 12 16H4C3.46957 16 2.96086 15.7893 2.58579 15.4142C2.21071 15.0391 2 14.5304 2 14V2C2 1.46957 2.21071 0.960859 2.58579 0.585786C2.96086 0.210714 3.46957 0 4 0L9.5 0L14 4.5ZM11 4.5C10.6022 4.5 10.2206 4.34196 9.93934 4.06066C9.65804 3.77936 9.5 3.39782 9.5 3V1H4C3.73478 1 3.48043 1.10536 3.29289 1.29289C3.10536 1.48043 3 1.73478 3 2V14C3 14.2652 3.10536 14.5196 3.29289 14.7071C3.48043 14.8946 3.73478 15 4 15H12C12.2652 15 12.5196 14.8946 12.7071 14.7071C12.8946 14.5196 13 14.2652 13 14V4.5H11Z" fill="black"/>
</svg>
