<svg width="24" height="24" viewBox="0 0 24 24" fill="none" xmlns="http://www.w3.org/2000/svg">
<path fill-rule="evenodd" clip-rule="evenodd" d="M18.9076 10.2867L15.1493 20.2986C14.9725 20.7693 14.6249 21.1561 14.1757 21.3821C13.7265 21.608 13.2087 21.6564 12.7254 21.5177L6.73674 19.8005C6.25338 19.662 5.83992 19.3465 5.57871 18.9169C5.31749 18.4873 5.22768 17.975 5.32716 17.4822L7.4455 7L18.9076 10.2867ZM7.52839 17.4569L9.39067 9.14839C9.40384 9.08321 9.42987 9.02131 9.46726 8.96631C9.50464 8.91131 9.55261 8.86433 9.60838 8.8281C9.66414 8.79187 9.72657 8.76713 9.79201 8.75532C9.85745 8.74352 9.92459 8.74489 9.9895 8.75935C10.0544 8.77381 10.1158 8.80107 10.17 8.83954C10.2243 8.87801 10.2703 8.92691 10.3054 8.98338C10.3405 9.03986 10.364 9.10277 10.3745 9.16843C10.385 9.23409 10.3823 9.30119 10.3666 9.3658L8.50426 17.6743C8.4911 17.7395 8.46506 17.8014 8.42768 17.8564C8.3903 17.9114 8.34232 17.9584 8.28656 17.9946C8.23079 18.0309 8.16837 18.0556 8.10292 18.0674C8.03748 18.0792 7.97034 18.0778 7.90543 18.0634C7.84053 18.0489 7.77916 18.0217 7.72492 17.9832C7.67067 17.9447 7.62465 17.8958 7.58954 17.8393C7.55443 17.7829 7.53093 17.72 7.52043 17.6543C7.50993 17.5886 7.51264 17.5215 7.52839 17.4569ZM15.4313 10.462C15.5508 10.4046 15.6881 10.3969 15.8132 10.4408C15.9383 10.4847 16.0408 10.5764 16.0983 10.6959C16.1557 10.8154 16.1633 10.9528 16.1195 11.0778L13.296 19.1108C13.2497 19.2327 13.1576 19.3318 13.0394 19.3868C12.9211 19.4418 12.786 19.4485 12.663 19.4053C12.5399 19.3621 12.4385 19.2726 12.3806 19.1557C12.3226 19.0389 12.3125 18.904 12.3526 18.7799L15.1762 10.747C15.2201 10.6219 15.3118 10.5194 15.4313 10.462ZM12.5207 9.64793C12.6367 9.58364 12.7734 9.56806 12.9009 9.60461C13.0284 9.64116 13.1361 9.72686 13.2004 9.84284C13.2647 9.95882 13.2803 10.0956 13.2437 10.2231L10.9008 18.3938C10.8642 18.5213 10.7786 18.629 10.6626 18.6933C10.5466 18.7576 10.4098 18.7731 10.2823 18.7366C10.1549 18.7 10.0471 18.6144 9.98285 18.4984C9.91856 18.3824 9.90298 18.2456 9.93953 18.1181L12.2825 9.94742C12.319 9.81995 12.4047 9.71222 12.5207 9.64793Z" fill="black"/>
<path fill-rule="evenodd" clip-rule="evenodd" d="M15.1115 3.10713L15.268 4.09482L18.7249 3.5473C18.8559 3.52655 18.9897 3.55869 19.097 3.63663C19.2043 3.71458 19.2762 3.83195 19.2969 3.96292C19.3177 4.0939 19.2855 4.22775 19.2076 4.33503C19.1297 4.44232 19.0123 4.51424 18.8813 4.53499L18.3499 4.61915L6.04136 6.56863C5.91039 6.58938 5.77654 6.55724 5.66925 6.4793C5.56197 6.40135 5.49005 6.28398 5.4693 6.15301C5.44856 6.02203 5.48069 5.88818 5.55864 5.7809C5.63658 5.67361 5.75395 5.60169 5.88493 5.58094L9.34184 5.03342L9.1854 4.04574C9.12317 3.65281 9.21958 3.25125 9.45341 2.92941C9.68725 2.60756 10.0394 2.39179 10.4323 2.32955L13.3954 1.86025C13.7883 1.79801 14.1898 1.89442 14.5117 2.12826C14.8335 2.36209 15.0493 2.7142 15.1115 3.10713ZM10.3295 4.87699L10.1731 3.8893C10.1523 3.75833 10.1845 3.62447 10.2624 3.51719C10.3404 3.40991 10.4577 3.33798 10.5887 3.31724L13.5518 2.84794C13.6828 2.82719 13.8166 2.85933 13.9239 2.93727C14.0312 3.01522 14.1031 3.13259 14.1238 3.26356L14.2803 4.25125L10.3295 4.87699Z" fill="black"/>
</svg>
