<svg width="292" height="99" viewBox="0 0 292 99" fill="none" xmlns="http://www.w3.org/2000/svg">
<rect y="0.00213623" width="23.1654" height="98.9975" rx="11.5827" fill="#FF0000"/>
<rect x="49.4991" y="0.00244141" width="23.1654" height="98.9975" rx="11.5827" fill="#FF8A00"/>
<rect y="60.9769" width="23.1654" height="98.9975" rx="11.5827" transform="rotate(-90 0 60.9769)" fill="#D900A9"/>
<rect y="0.00213623" width="23.1654" height="49.4988" rx="11.5827" fill="#35C810"/>
<rect x="49.4991" y="23.1654" width="23.1654" height="67.1203" rx="11.5827" transform="rotate(-90 49.4991 23.1654)" fill="#104EC8"/>
<rect y="60.9769" width="23.1654" height="72.6641" rx="11.5827" transform="rotate(-90 0 60.9769)" fill="#128DFF"/>
<path d="M151.328 66.256C150.752 66.256 150.272 66.096 149.888 65.776C149.504 65.392 149.312 64.88 149.312 64.24C149.312 63.6 149.312 62.96 149.312 62.32C149.312 61.68 149.312 61.04 149.312 60.4C149.44 57.648 150.048 55.216 151.136 53.104C152.224 50.992 153.536 49.072 155.072 47.344C156.672 45.616 158.272 43.984 159.872 42.448C161.472 40.848 162.816 39.248 163.904 37.648C165.056 36.048 165.76 34.352 166.016 32.56C166.272 30.256 165.824 28.336 164.672 26.8C163.52 25.2 161.952 23.984 159.968 23.152C157.984 22.32 155.936 21.904 153.824 21.904C150.432 21.904 147.52 22.8 145.088 24.592C142.72 26.32 141.152 29.264 140.384 33.424C140.192 34.192 139.872 34.736 139.424 35.056C138.976 35.376 138.464 35.536 137.888 35.536H133.28C132.704 35.536 132.192 35.344 131.744 34.96C131.36 34.576 131.168 34.064 131.168 33.424C131.232 30.8 131.808 28.304 132.896 25.936C133.984 23.568 135.52 21.488 137.504 19.696C139.552 17.904 141.952 16.496 144.704 15.472C147.52 14.384 150.656 13.84 154.112 13.84C158.016 13.84 161.344 14.384 164.096 15.472C166.912 16.496 169.152 17.904 170.816 19.696C172.544 21.424 173.792 23.344 174.56 25.456C175.328 27.568 175.648 29.68 175.52 31.792C175.328 34.352 174.688 36.656 173.6 38.704C172.512 40.688 171.2 42.544 169.664 44.272C168.128 45.936 166.56 47.6 164.96 49.264C163.424 50.864 162.08 52.56 160.928 54.352C159.84 56.08 159.232 57.968 159.104 60.016C159.04 60.72 158.976 61.424 158.912 62.128C158.912 62.768 158.912 63.408 158.912 64.048C158.784 64.752 158.528 65.296 158.144 65.68C157.76 66.064 157.216 66.256 156.512 66.256H151.328ZM150.56 82C149.92 82 149.376 81.808 148.928 81.424C148.544 80.976 148.352 80.432 148.352 79.792V73.936C148.352 73.296 148.544 72.784 148.928 72.4C149.376 71.952 149.92 71.728 150.56 71.728H156.8C157.504 71.728 158.048 71.952 158.432 72.4C158.88 72.784 159.104 73.296 159.104 73.936V79.792C159.104 80.432 158.88 80.976 158.432 81.424C158.048 81.808 157.504 82 156.8 82H150.56ZM202.328 66.256C201.752 66.256 201.272 66.096 200.888 65.776C200.504 65.392 200.312 64.88 200.312 64.24C200.312 63.6 200.312 62.96 200.312 62.32C200.312 61.68 200.312 61.04 200.312 60.4C200.44 57.648 201.048 55.216 202.136 53.104C203.224 50.992 204.536 49.072 206.072 47.344C207.672 45.616 209.272 43.984 210.872 42.448C212.472 40.848 213.816 39.248 214.904 37.648C216.056 36.048 216.76 34.352 217.016 32.56C217.272 30.256 216.824 28.336 215.672 26.8C214.52 25.2 212.952 23.984 210.968 23.152C208.984 22.32 206.936 21.904 204.824 21.904C201.432 21.904 198.52 22.8 196.088 24.592C193.72 26.32 192.152 29.264 191.384 33.424C191.192 34.192 190.872 34.736 190.424 35.056C189.976 35.376 189.464 35.536 188.888 35.536H184.28C183.704 35.536 183.192 35.344 182.744 34.96C182.36 34.576 182.168 34.064 182.168 33.424C182.232 30.8 182.808 28.304 183.896 25.936C184.984 23.568 186.52 21.488 188.504 19.696C190.552 17.904 192.952 16.496 195.704 15.472C198.52 14.384 201.656 13.84 205.112 13.84C209.016 13.84 212.344 14.384 215.096 15.472C217.912 16.496 220.152 17.904 221.816 19.696C223.544 21.424 224.792 23.344 225.56 25.456C226.328 27.568 226.648 29.68 226.52 31.792C226.328 34.352 225.688 36.656 224.6 38.704C223.512 40.688 222.2 42.544 220.664 44.272C219.128 45.936 217.56 47.6 215.96 49.264C214.424 50.864 213.08 52.56 211.928 54.352C210.84 56.08 210.232 57.968 210.104 60.016C210.04 60.72 209.976 61.424 209.912 62.128C209.912 62.768 209.912 63.408 209.912 64.048C209.784 64.752 209.528 65.296 209.144 65.68C208.76 66.064 208.216 66.256 207.512 66.256H202.328ZM201.56 82C200.92 82 200.376 81.808 199.928 81.424C199.544 80.976 199.352 80.432 199.352 79.792V73.936C199.352 73.296 199.544 72.784 199.928 72.4C200.376 71.952 200.92 71.728 201.56 71.728H207.8C208.504 71.728 209.048 71.952 209.432 72.4C209.88 72.784 210.104 73.296 210.104 73.936V79.792C210.104 80.432 209.88 80.976 209.432 81.424C209.048 81.808 208.504 82 207.8 82H201.56ZM253.328 66.256C252.752 66.256 252.272 66.096 251.888 65.776C251.504 65.392 251.312 64.88 251.312 64.24C251.312 63.6 251.312 62.96 251.312 62.32C251.312 61.68 251.312 61.04 251.312 60.4C251.44 57.648 252.048 55.216 253.136 53.104C254.224 50.992 255.536 49.072 257.072 47.344C258.672 45.616 260.272 43.984 261.872 42.448C263.472 40.848 264.816 39.248 265.904 37.648C267.056 36.048 267.76 34.352 268.016 32.56C268.272 30.256 267.824 28.336 266.672 26.8C265.52 25.2 263.952 23.984 261.968 23.152C259.984 22.32 257.936 21.904 255.824 21.904C252.432 21.904 249.52 22.8 247.088 24.592C244.72 26.32 243.152 29.264 242.384 33.424C242.192 34.192 241.872 34.736 241.424 35.056C240.976 35.376 240.464 35.536 239.888 35.536H235.28C234.704 35.536 234.192 35.344 233.744 34.96C233.36 34.576 233.168 34.064 233.168 33.424C233.232 30.8 233.808 28.304 234.896 25.936C235.984 23.568 237.52 21.488 239.504 19.696C241.552 17.904 243.952 16.496 246.704 15.472C249.52 14.384 252.656 13.84 256.112 13.84C260.016 13.84 263.344 14.384 266.096 15.472C268.912 16.496 271.152 17.904 272.816 19.696C274.544 21.424 275.792 23.344 276.56 25.456C277.328 27.568 277.648 29.68 277.52 31.792C277.328 34.352 276.688 36.656 275.6 38.704C274.512 40.688 273.2 42.544 271.664 44.272C270.128 45.936 268.56 47.6 266.96 49.264C265.424 50.864 264.08 52.56 262.928 54.352C261.84 56.08 261.232 57.968 261.104 60.016C261.04 60.72 260.976 61.424 260.912 62.128C260.912 62.768 260.912 63.408 260.912 64.048C260.784 64.752 260.528 65.296 260.144 65.68C259.76 66.064 259.216 66.256 258.512 66.256H253.328ZM252.56 82C251.92 82 251.376 81.808 250.928 81.424C250.544 80.976 250.352 80.432 250.352 79.792V73.936C250.352 73.296 250.544 72.784 250.928 72.4C251.376 71.952 251.92 71.728 252.56 71.728H258.8C259.504 71.728 260.048 71.952 260.432 72.4C260.88 72.784 261.104 73.296 261.104 73.936V79.792C261.104 80.432 260.88 80.976 260.432 81.424C260.048 81.808 259.504 82 258.8 82H252.56Z" fill="black"/>
</svg>
