<svg width="499" height="99" viewBox="0 0 499 99" fill="none" xmlns="http://www.w3.org/2000/svg">
<rect y="0.00216675" width="23.1654" height="98.9975" rx="11.5827" fill="#FF0000"/>
<rect x="49.4991" y="0.00241089" width="23.1654" height="98.9975" rx="11.5827" fill="#FF8A00"/>
<rect y="60.9768" width="23.1654" height="98.9975" rx="11.5827" transform="rotate(-90 0 60.9768)" fill="#D900A9"/>
<rect y="0.00216675" width="23.1654" height="49.4988" rx="11.5827" fill="#35C810"/>
<rect x="49.4991" y="23.1654" width="23.1654" height="67.1203" rx="11.5827" transform="rotate(-90 49.4991 23.1654)" fill="#104EC8"/>
<rect y="60.9768" width="23.1654" height="72.6641" rx="11.5827" transform="rotate(-90 0 60.9768)" fill="#128DFF"/>
<path d="M123.028 82C122.516 82 122.068 81.808 121.684 81.424C121.3 81.04 121.108 80.592 121.108 80.08C121.108 79.76 121.14 79.408 121.204 79.024L145.012 16.912C145.268 16.272 145.62 15.76 146.068 15.376C146.516 14.992 147.188 14.8 148.084 14.8H154.612C155.444 14.8 156.084 14.992 156.532 15.376C157.044 15.76 157.428 16.272 157.684 16.912L181.396 79.024C181.524 79.408 181.588 79.76 181.588 80.08C181.588 80.592 181.396 81.04 181.012 81.424C180.628 81.808 180.18 82 179.668 82H174.772C174.004 82 173.428 81.808 173.044 81.424C172.724 81.04 172.5 80.688 172.372 80.368L167.092 66.736H135.604L130.324 80.368C130.26 80.688 130.036 81.04 129.652 81.424C129.268 81.808 128.692 82 127.924 82H123.028ZM138.388 58.48H164.308L151.348 24.4L138.388 58.48ZM210.202 82.96C205.658 82.96 201.722 82.096 198.394 80.368C195.13 78.576 192.602 76.048 190.81 72.784C189.018 69.456 188.058 65.488 187.93 60.88C187.866 59.92 187.834 58.64 187.834 57.04C187.834 55.44 187.866 54.16 187.93 53.2C188.058 48.592 189.018 44.656 190.81 41.392C192.602 38.064 195.13 35.536 198.394 33.808C201.722 32.016 205.658 31.12 210.202 31.12C213.914 31.12 217.082 31.632 219.706 32.656C222.394 33.68 224.602 34.992 226.33 36.592C228.058 38.192 229.338 39.92 230.17 41.776C231.066 43.632 231.546 45.392 231.61 47.056C231.674 47.696 231.482 48.208 231.034 48.592C230.586 48.976 230.042 49.168 229.402 49.168H224.794C224.154 49.168 223.674 49.04 223.354 48.784C223.034 48.464 222.714 47.952 222.394 47.248C221.242 44.112 219.674 41.904 217.69 40.624C215.706 39.344 213.242 38.704 210.298 38.704C206.458 38.704 203.322 39.888 200.89 42.256C198.522 44.624 197.242 48.432 197.049 53.68C196.986 55.984 196.986 58.224 197.049 60.4C197.242 65.712 198.522 69.552 200.89 71.92C203.322 74.224 206.458 75.376 210.298 75.376C213.242 75.376 215.706 74.736 217.69 73.456C219.674 72.176 221.242 69.968 222.394 66.832C222.714 66.128 223.034 65.648 223.354 65.392C223.674 65.072 224.154 64.912 224.794 64.912H229.402C230.042 64.912 230.586 65.104 231.034 65.488C231.482 65.872 231.674 66.384 231.61 67.024C231.546 68.368 231.258 69.744 230.746 71.152C230.234 72.56 229.402 74 228.25 75.472C227.162 76.88 225.786 78.16 224.122 79.312C222.458 80.4 220.442 81.296 218.074 82C215.77 82.64 213.146 82.96 210.202 82.96ZM263.17 82.96C258.626 82.96 254.69 82.096 251.362 80.368C248.098 78.576 245.57 76.048 243.778 72.784C241.986 69.456 241.026 65.488 240.898 60.88C240.834 59.92 240.802 58.64 240.802 57.04C240.802 55.44 240.834 54.16 240.898 53.2C241.026 48.592 241.986 44.656 243.778 41.392C245.57 38.064 248.098 35.536 251.362 33.808C254.69 32.016 258.626 31.12 263.17 31.12C266.882 31.12 270.05 31.632 272.674 32.656C275.362 33.68 277.57 34.992 279.298 36.592C281.026 38.192 282.306 39.92 283.138 41.776C284.034 43.632 284.514 45.392 284.578 47.056C284.642 47.696 284.45 48.208 284.002 48.592C283.554 48.976 283.01 49.168 282.37 49.168H277.762C277.122 49.168 276.642 49.04 276.322 48.784C276.002 48.464 275.682 47.952 275.362 47.248C274.21 44.112 272.642 41.904 270.658 40.624C268.674 39.344 266.21 38.704 263.266 38.704C259.426 38.704 256.29 39.888 253.858 42.256C251.49 44.624 250.21 48.432 250.018 53.68C249.954 55.984 249.954 58.224 250.018 60.4C250.21 65.712 251.49 69.552 253.858 71.92C256.29 74.224 259.426 75.376 263.266 75.376C266.21 75.376 268.674 74.736 270.658 73.456C272.642 72.176 274.21 69.968 275.362 66.832C275.682 66.128 276.002 65.648 276.322 65.392C276.642 65.072 277.122 64.912 277.762 64.912H282.37C283.01 64.912 283.554 65.104 284.002 65.488C284.45 65.872 284.642 66.384 284.578 67.024C284.514 68.368 284.226 69.744 283.714 71.152C283.202 72.56 282.37 74 281.218 75.472C280.13 76.88 278.754 78.16 277.09 79.312C275.426 80.4 273.41 81.296 271.042 82C268.738 82.64 266.114 82.96 263.17 82.96ZM316.427 82.96C311.563 82.96 307.499 82.032 304.235 80.176C300.971 78.32 298.475 75.76 296.747 72.496C295.019 69.168 294.059 65.392 293.867 61.168C293.803 60.08 293.771 58.704 293.771 57.04C293.771 55.312 293.803 53.936 293.867 52.912C294.059 48.624 295.019 44.848 296.747 41.584C298.539 38.32 301.067 35.76 304.331 33.904C307.595 32.048 311.627 31.12 316.427 31.12C321.227 31.12 325.259 32.048 328.523 33.904C331.787 35.76 334.283 38.32 336.011 41.584C337.803 44.848 338.795 48.624 338.987 52.912C339.051 53.936 339.083 55.312 339.083 57.04C339.083 58.704 339.051 60.08 338.987 61.168C338.795 65.392 337.835 69.168 336.107 72.496C334.379 75.76 331.883 78.32 328.619 80.176C325.355 82.032 321.291 82.96 316.427 82.96ZM316.427 75.568C320.395 75.568 323.563 74.32 325.931 71.824C328.299 69.264 329.579 65.552 329.771 60.688C329.835 59.728 329.867 58.512 329.867 57.04C329.867 55.568 329.835 54.352 329.771 53.392C329.579 48.528 328.299 44.848 325.931 42.352C323.563 39.792 320.395 38.512 316.427 38.512C312.459 38.512 309.259 39.792 306.827 42.352C304.459 44.848 303.211 48.528 303.083 53.392C303.019 54.352 302.987 55.568 302.987 57.04C302.987 58.512 303.019 59.728 303.083 60.688C303.211 65.552 304.459 69.264 306.827 71.824C309.259 74.32 312.459 75.568 316.427 75.568ZM369.728 82.96C365.632 82.96 362.144 82.064 359.264 80.272C356.448 78.416 354.304 75.856 352.832 72.592C351.36 69.328 350.624 65.584 350.624 61.36V34.288C350.624 33.648 350.816 33.136 351.2 32.752C351.648 32.304 352.192 32.08 352.832 32.08H357.632C358.272 32.08 358.784 32.304 359.168 32.752C359.616 33.136 359.84 33.648 359.84 34.288V60.88C359.84 70.416 364 75.184 372.32 75.184C376.288 75.184 379.456 73.936 381.824 71.44C384.256 68.88 385.472 65.36 385.472 60.88V34.288C385.472 33.648 385.664 33.136 386.048 32.752C386.496 32.304 387.04 32.08 387.68 32.08H392.384C393.088 32.08 393.632 32.304 394.016 32.752C394.4 33.136 394.592 33.648 394.592 34.288V79.792C394.592 80.432 394.4 80.976 394.016 81.424C393.632 81.808 393.088 82 392.384 82H387.968C387.328 82 386.784 81.808 386.336 81.424C385.952 80.976 385.76 80.432 385.76 79.792V75.568C384.032 77.808 381.92 79.6 379.424 80.944C376.992 82.288 373.76 82.96 369.728 82.96ZM411.062 82C410.422 82 409.878 81.808 409.43 81.424C409.046 80.976 408.854 80.432 408.854 79.792V34.288C408.854 33.648 409.046 33.136 409.43 32.752C409.878 32.304 410.422 32.08 411.062 32.08H415.574C416.214 32.08 416.726 32.304 417.11 32.752C417.558 33.136 417.782 33.648 417.782 34.288V38.512C419.446 36.336 421.526 34.576 424.022 33.232C426.582 31.824 429.846 31.12 433.814 31.12C437.974 31.12 441.494 32.048 444.374 33.904C447.318 35.696 449.526 38.224 450.998 41.488C452.47 44.688 453.206 48.432 453.206 52.72V79.792C453.206 80.432 453.014 80.976 452.63 81.424C452.246 81.808 451.734 82 451.094 82H446.294C445.654 82 445.11 81.808 444.662 81.424C444.278 80.976 444.086 80.432 444.086 79.792V53.2C444.086 48.72 442.998 45.232 440.822 42.736C438.646 40.176 435.446 38.896 431.222 38.896C427.254 38.896 424.054 40.176 421.622 42.736C419.254 45.232 418.07 48.72 418.07 53.2V79.792C418.07 80.432 417.846 80.976 417.398 81.424C417.014 81.808 416.502 82 415.862 82H411.062ZM485.905 82C482.321 82 479.409 81.328 477.169 79.984C474.929 78.576 473.297 76.624 472.273 74.128C471.249 71.568 470.737 68.56 470.737 65.104V39.76H463.249C462.609 39.76 462.065 39.568 461.617 39.184C461.233 38.736 461.041 38.192 461.041 37.552V34.288C461.041 33.648 461.233 33.136 461.617 32.752C462.065 32.304 462.609 32.08 463.249 32.08H470.737V16.048C470.737 15.408 470.929 14.896 471.312 14.512C471.76 14.064 472.305 13.84 472.945 13.84H477.457C478.097 13.84 478.609 14.064 478.993 14.512C479.441 14.896 479.665 15.408 479.665 16.048V32.08H491.569C492.209 32.08 492.721 32.304 493.105 32.752C493.553 33.136 493.777 33.648 493.777 34.288V37.552C493.777 38.192 493.553 38.736 493.105 39.184C492.721 39.568 492.209 39.76 491.569 39.76H479.665V64.432C479.665 67.44 480.177 69.808 481.201 71.536C482.225 73.264 484.049 74.128 486.673 74.128H492.529C493.169 74.128 493.681 74.352 494.065 74.8C494.513 75.184 494.737 75.696 494.737 76.336V79.792C494.737 80.432 494.513 80.976 494.065 81.424C493.681 81.808 493.169 82 492.529 82H485.905Z" fill="black"/>
</svg>
