<svg width="533" height="149" viewBox="0 0 533 149" fill="none" xmlns="http://www.w3.org/2000/svg">
<rect width="34.866" height="149" rx="17.433" fill="#FF0000"/>
<rect x="74.5" width="34.866" height="149" rx="17.433" fill="#FF8A00"/>
<rect y="91.7839" width="34.866" height="149" rx="17.433" transform="rotate(-90 0 91.7839)" fill="#D900A9"/>
<rect width="34.866" height="74.5" rx="17.433" fill="#35C810"/>
<rect x="74.5" y="34.866" width="34.866" height="101.022" rx="17.433" transform="rotate(-90 74.5 34.866)" fill="#104EC8"/>
<rect y="91.7839" width="34.866" height="109.366" rx="17.433" transform="rotate(-90 0 91.7839)" fill="#128DFF"/>
<path d="M244.364 118H214.227V24.9091H245.318C254.439 24.9091 262.273 26.7727 268.818 30.5C275.364 34.197 280.379 39.5151 283.864 46.4545C287.379 53.3636 289.136 61.6515 289.136 71.3182C289.136 81.0152 287.364 89.3485 283.818 96.3182C280.303 103.288 275.212 108.652 268.545 112.409C261.879 116.136 253.818 118 244.364 118ZM228.273 105.727H243.591C250.682 105.727 256.576 104.394 261.273 101.727C265.97 99.0303 269.485 95.1364 271.818 90.0455C274.152 84.9242 275.318 78.6818 275.318 71.3182C275.318 64.0152 274.152 57.8182 271.818 52.7273C269.515 47.6364 266.076 43.7727 261.5 41.1364C256.924 38.5 251.242 37.1818 244.455 37.1818H228.273V105.727ZM305.511 118V48.1818H318.648V59.2727H319.375C320.648 55.5151 322.89 52.5606 326.102 50.4091C329.345 48.2273 333.011 47.1364 337.102 47.1364C337.951 47.1364 338.951 47.1667 340.102 47.2273C341.284 47.2879 342.208 47.3636 342.875 47.4545V60.4545C342.33 60.303 341.36 60.1364 339.966 59.9545C338.572 59.7424 337.178 59.6364 335.784 59.6364C332.572 59.6364 329.708 60.3182 327.193 61.6818C324.708 63.0151 322.739 64.8788 321.284 67.2727C319.83 69.6364 319.102 72.3333 319.102 75.3636V118H305.511ZM354.636 118V48.1818H368.227V118H354.636ZM361.5 37.4091C359.136 37.4091 357.106 36.6212 355.409 35.0454C353.742 33.4394 352.909 31.5303 352.909 29.3182C352.909 27.0758 353.742 25.1667 355.409 23.5909C357.106 21.9848 359.136 21.1818 361.5 21.1818C363.864 21.1818 365.879 21.9848 367.545 23.5909C369.242 25.1667 370.091 27.0758 370.091 29.3182C370.091 31.5303 369.242 33.4394 367.545 35.0454C365.879 36.6212 363.864 37.4091 361.5 37.4091ZM446.239 48.1818L420.92 118H406.375L381.011 48.1818H395.602L413.284 101.909H414.011L431.648 48.1818H446.239ZM486.727 119.409C479.848 119.409 473.924 117.939 468.955 115C464.015 112.03 460.197 107.864 457.5 102.5C454.833 97.1061 453.5 90.7879 453.5 83.5455C453.5 76.3939 454.833 70.0909 457.5 64.6364C460.197 59.1818 463.955 54.9242 468.773 51.8636C473.621 48.803 479.288 47.2727 485.773 47.2727C489.712 47.2727 493.53 47.9242 497.227 49.2273C500.924 50.5303 504.242 52.5758 507.182 55.3636C510.121 58.1515 512.439 61.7727 514.136 66.2273C515.833 70.6515 516.682 76.0303 516.682 82.3636V87.1818H461.182V77H503.364C503.364 73.4242 502.636 70.2576 501.182 67.5C499.727 64.7121 497.682 62.5151 495.045 60.9091C492.439 59.303 489.379 58.5 485.864 58.5C482.045 58.5 478.712 59.4394 475.864 61.3182C473.045 63.1667 470.864 65.5909 469.318 68.5909C467.803 71.5606 467.045 74.7879 467.045 78.2727V86.2273C467.045 90.8939 467.864 94.8636 469.5 98.1364C471.167 101.409 473.485 103.909 476.455 105.636C479.424 107.333 482.894 108.182 486.864 108.182C489.439 108.182 491.788 107.818 493.909 107.091C496.03 106.333 497.864 105.212 499.409 103.727C500.955 102.242 502.136 100.409 502.955 98.2273L515.818 100.545C514.788 104.333 512.939 107.652 510.273 110.5C507.636 113.318 504.318 115.515 500.318 117.091C496.348 118.636 491.818 119.409 486.727 119.409Z" fill="black"/>
</svg>
