<svg width="362" height="99" viewBox="0 0 362 99" fill="none" xmlns="http://www.w3.org/2000/svg">
<rect y="0.00216675" width="23.1654" height="98.9975" rx="11.5827" fill="#FF0000"/>
<rect x="49.4991" y="0.00241089" width="23.1654" height="98.9975" rx="11.5827" fill="#FF8A00"/>
<rect y="60.9768" width="23.1654" height="98.9975" rx="11.5827" transform="rotate(-90 0 60.9768)" fill="#D900A9"/>
<rect y="0.00216675" width="23.1654" height="49.4988" rx="11.5827" fill="#35C810"/>
<rect x="49.4991" y="23.1654" width="23.1654" height="67.1203" rx="11.5827" transform="rotate(-90 49.4991 23.1654)" fill="#104EC8"/>
<rect y="60.9768" width="23.1654" height="72.6641" rx="11.5827" transform="rotate(-90 0 60.9768)" fill="#128DFF"/>
<path d="M130.576 82C129.872 82 129.328 81.808 128.944 81.424C128.56 80.976 128.368 80.432 128.368 79.792V17.008C128.368 16.368 128.56 15.856 128.944 15.472C129.328 15.024 129.872 14.8 130.576 14.8H135.664C136.304 14.8 136.816 15.024 137.2 15.472C137.648 15.856 137.872 16.368 137.872 17.008V79.792C137.872 80.432 137.648 80.976 137.2 81.424C136.816 81.808 136.304 82 135.664 82H130.576ZM171.61 82.96C168.09 82.96 165.05 82.352 162.49 81.136C159.93 79.856 157.818 78.16 156.154 76.048C154.554 73.872 153.338 71.408 152.506 68.656C151.738 65.904 151.29 62.992 151.162 59.92C151.098 58.896 151.066 57.936 151.066 57.04C151.066 56.144 151.098 55.184 151.162 54.16C151.29 51.152 151.738 48.272 152.506 45.52C153.338 42.768 154.554 40.304 156.154 38.128C157.818 35.952 159.93 34.256 162.49 33.04C165.05 31.76 168.09 31.12 171.61 31.12C175.386 31.12 178.522 31.792 181.018 33.136C183.514 34.48 185.562 36.144 187.162 38.128V16.048C187.162 15.408 187.354 14.896 187.738 14.512C188.186 14.064 188.73 13.84 189.37 13.84H193.978C194.618 13.84 195.13 14.064 195.514 14.512C195.962 14.896 196.186 15.408 196.186 16.048V79.792C196.186 80.432 195.962 80.976 195.514 81.424C195.13 81.808 194.618 82 193.978 82H189.658C188.954 82 188.41 81.808 188.026 81.424C187.642 80.976 187.45 80.432 187.45 79.792V75.76C185.85 77.808 183.77 79.536 181.21 80.944C178.65 82.288 175.45 82.96 171.61 82.96ZM173.626 75.184C176.826 75.184 179.386 74.448 181.306 72.976C183.226 71.504 184.666 69.648 185.626 67.408C186.586 65.104 187.098 62.768 187.162 60.4C187.226 59.376 187.258 58.16 187.258 56.752C187.258 55.28 187.226 54.032 187.162 53.008C187.098 50.768 186.554 48.56 185.53 46.384C184.57 44.208 183.098 42.416 181.114 41.008C179.194 39.6 176.698 38.896 173.626 38.896C170.362 38.896 167.77 39.632 165.85 41.104C163.93 42.512 162.554 44.4 161.722 46.768C160.89 49.072 160.41 51.568 160.282 54.256C160.218 56.112 160.218 57.968 160.282 59.824C160.41 62.512 160.89 65.04 161.722 67.408C162.554 69.712 163.93 71.6 165.85 73.072C167.77 74.48 170.362 75.184 173.626 75.184ZM230.335 82.96C223.743 82.96 218.495 80.944 214.591 76.912C210.687 72.816 208.543 67.248 208.159 60.208C208.095 59.376 208.063 58.32 208.063 57.04C208.063 55.696 208.095 54.608 208.159 53.776C208.415 49.232 209.471 45.264 211.327 41.872C213.183 38.416 215.711 35.76 218.911 33.904C222.175 32.048 225.983 31.12 230.335 31.12C235.199 31.12 239.263 32.144 242.527 34.192C245.855 36.24 248.383 39.152 250.111 42.928C251.839 46.704 252.703 51.12 252.703 56.176V57.808C252.703 58.512 252.479 59.056 252.031 59.44C251.647 59.824 251.135 60.016 250.495 60.016H217.279C217.279 60.08 217.279 60.208 217.279 60.4C217.279 60.592 217.279 60.752 217.279 60.88C217.407 63.504 217.983 65.968 219.007 68.272C220.031 70.512 221.503 72.336 223.423 73.744C225.343 75.152 227.647 75.856 230.335 75.856C232.639 75.856 234.559 75.504 236.095 74.8C237.631 74.096 238.879 73.328 239.839 72.496C240.799 71.6 241.439 70.928 241.759 70.48C242.335 69.648 242.783 69.168 243.103 69.04C243.423 68.848 243.935 68.752 244.639 68.752H249.247C249.887 68.752 250.399 68.944 250.783 69.328C251.231 69.648 251.423 70.128 251.359 70.768C251.295 71.728 250.783 72.912 249.823 74.32C248.863 75.664 247.487 77.008 245.695 78.352C243.903 79.696 241.727 80.816 239.167 81.712C236.607 82.544 233.663 82.96 230.335 82.96ZM217.279 53.392H243.583V53.104C243.583 50.224 243.039 47.664 241.951 45.424C240.927 43.184 239.423 41.424 237.439 40.144C235.455 38.8 233.087 38.128 230.335 38.128C227.583 38.128 225.215 38.8 223.231 40.144C221.311 41.424 219.839 43.184 218.815 45.424C217.791 47.664 217.279 50.224 217.279 53.104V53.392ZM278.102 82.96C274.902 82.96 271.99 82.32 269.366 81.04C266.742 79.76 264.63 78.032 263.03 75.856C261.43 73.68 260.63 71.216 260.63 68.464C260.63 64.048 262.422 60.528 266.006 57.904C269.59 55.28 274.262 53.552 280.022 52.72L294.326 50.704V47.92C294.326 44.848 293.43 42.448 291.638 40.72C289.91 38.992 287.062 38.128 283.094 38.128C280.214 38.128 277.878 38.704 276.086 39.856C274.358 41.008 273.142 42.48 272.438 44.272C272.054 45.232 271.382 45.712 270.422 45.712H266.102C265.398 45.712 264.854 45.52 264.47 45.136C264.15 44.688 263.99 44.176 263.99 43.6C263.99 42.64 264.342 41.456 265.046 40.048C265.814 38.64 266.966 37.264 268.502 35.92C270.038 34.576 271.99 33.456 274.358 32.56C276.79 31.6 279.734 31.12 283.19 31.12C287.03 31.12 290.262 31.632 292.886 32.656C295.51 33.616 297.558 34.928 299.03 36.592C300.566 38.256 301.654 40.144 302.294 42.256C302.998 44.368 303.35 46.512 303.35 48.688V79.792C303.35 80.432 303.126 80.976 302.678 81.424C302.294 81.808 301.782 82 301.142 82H296.726C296.022 82 295.478 81.808 295.094 81.424C294.71 80.976 294.518 80.432 294.518 79.792V75.664C293.686 76.816 292.566 77.968 291.158 79.12C289.75 80.208 287.99 81.136 285.878 81.904C283.766 82.608 281.174 82.96 278.102 82.96ZM280.118 75.76C282.742 75.76 285.142 75.216 287.318 74.128C289.494 72.976 291.19 71.216 292.406 68.848C293.686 66.48 294.326 63.504 294.326 59.92V57.232L283.19 58.864C278.646 59.504 275.222 60.592 272.918 62.128C270.614 63.6 269.462 65.488 269.462 67.792C269.462 69.584 269.974 71.088 270.998 72.304C272.086 73.456 273.43 74.32 275.03 74.896C276.694 75.472 278.39 75.76 280.118 75.76ZM334.431 82.96C330.847 82.96 327.775 82.512 325.215 81.616C322.655 80.72 320.575 79.632 318.975 78.352C317.375 77.072 316.159 75.792 315.327 74.512C314.559 73.232 314.143 72.208 314.079 71.44C314.015 70.736 314.239 70.192 314.751 69.808C315.263 69.424 315.775 69.232 316.287 69.232H320.511C320.895 69.232 321.183 69.296 321.375 69.424C321.631 69.488 321.951 69.744 322.335 70.192C323.167 71.088 324.095 71.984 325.119 72.88C326.143 73.776 327.391 74.512 328.863 75.088C330.399 75.664 332.287 75.952 334.527 75.952C337.791 75.952 340.479 75.344 342.591 74.128C344.703 72.848 345.759 70.992 345.759 68.56C345.759 66.96 345.311 65.68 344.415 64.72C343.583 63.76 342.047 62.896 339.807 62.128C337.631 61.36 334.623 60.56 330.783 59.728C326.943 58.832 323.903 57.744 321.663 56.464C319.423 55.12 317.823 53.552 316.863 51.76C315.903 49.904 315.423 47.824 315.423 45.52C315.423 43.152 316.127 40.88 317.535 38.704C318.943 36.464 320.991 34.64 323.679 33.232C326.431 31.824 329.855 31.12 333.951 31.12C337.279 31.12 340.127 31.536 342.495 32.368C344.863 33.2 346.815 34.256 348.351 35.536C349.887 36.752 351.039 37.968 351.807 39.184C352.575 40.4 352.991 41.424 353.055 42.256C353.119 42.896 352.927 43.44 352.479 43.888C352.031 44.272 351.519 44.464 350.943 44.464H346.911C346.463 44.464 346.079 44.368 345.759 44.176C345.503 43.984 345.247 43.76 344.991 43.504C344.351 42.672 343.583 41.84 342.687 41.008C341.855 40.176 340.735 39.504 339.327 38.992C337.983 38.416 336.191 38.128 333.951 38.128C330.751 38.128 328.351 38.8 326.751 40.144C325.151 41.488 324.351 43.184 324.351 45.232C324.351 46.448 324.703 47.536 325.407 48.496C326.111 49.456 327.455 50.32 329.439 51.088C331.423 51.856 334.367 52.688 338.271 53.584C342.495 54.416 345.823 55.536 348.255 56.944C350.687 58.352 352.415 59.984 353.439 61.84C354.463 63.696 354.975 65.84 354.975 68.272C354.975 70.96 354.175 73.424 352.575 75.664C351.039 77.904 348.735 79.696 345.663 81.04C342.655 82.32 338.911 82.96 334.431 82.96Z" fill="black"/>
</svg>
