<svg width="462" height="101" viewBox="0 0 462 101" fill="none" xmlns="http://www.w3.org/2000/svg">
<rect y="0.00195312" width="23.1654" height="98.9975" rx="11.5827" fill="#FF0000"/>
<rect x="49.4991" y="0.00244141" width="23.1654" height="98.9975" rx="11.5827" fill="#FF8A00"/>
<rect y="60.9771" width="23.1654" height="98.9975" rx="11.5827" transform="rotate(-90 0 60.9771)" fill="#D900A9"/>
<rect y="0.00195312" width="23.1654" height="49.4988" rx="11.5827" fill="#35C810"/>
<rect x="49.4991" y="23.1655" width="23.1654" height="67.1203" rx="11.5827" transform="rotate(-90 49.4991 23.1655)" fill="#104EC8"/>
<rect y="60.9771" width="23.1654" height="72.6641" rx="11.5827" transform="rotate(-90 0 60.9771)" fill="#128DFF"/>
<path d="M156.702 82.96C151.134 82.96 146.462 82.128 142.686 80.464C138.91 78.736 135.998 76.528 133.95 73.84C131.966 71.088 130.91 68.176 130.782 65.104C130.782 64.592 130.974 64.144 131.358 63.76C131.806 63.312 132.318 63.088 132.894 63.088H137.79C138.558 63.088 139.134 63.28 139.518 63.664C139.902 64.048 140.158 64.496 140.286 65.008C140.606 66.544 141.374 68.08 142.59 69.616C143.87 71.088 145.63 72.336 147.87 73.36C150.174 74.32 153.118 74.8 156.702 74.8C162.206 74.8 166.238 73.84 168.798 71.92C171.422 69.936 172.734 67.312 172.734 64.048C172.734 61.808 172.03 60.016 170.622 58.672C169.278 57.264 167.198 56.016 164.382 54.928C161.566 53.84 157.918 52.656 153.438 51.376C148.766 50.032 144.894 48.56 141.822 46.96C138.75 45.36 136.446 43.376 134.91 41.008C133.438 38.64 132.702 35.632 132.702 31.984C132.702 28.528 133.63 25.456 135.486 22.768C137.342 20.016 139.998 17.84 143.454 16.24C146.974 14.64 151.23 13.84 156.222 13.84C160.19 13.84 163.646 14.384 166.59 15.472C169.598 16.496 172.094 17.904 174.078 19.696C176.062 21.424 177.566 23.312 178.59 25.36C179.614 27.344 180.158 29.296 180.222 31.216C180.222 31.664 180.062 32.112 179.742 32.56C179.422 32.944 178.91 33.136 178.206 33.136H173.118C172.67 33.136 172.19 33.008 171.678 32.752C171.23 32.496 170.878 32.016 170.622 31.312C170.238 28.688 168.766 26.48 166.206 24.688C163.646 22.896 160.318 22 156.222 22C152.062 22 148.67 22.8 146.046 24.4C143.486 26 142.206 28.496 142.206 31.888C142.206 34.064 142.814 35.888 144.03 37.36C145.246 38.768 147.166 40.016 149.79 41.104C152.414 42.192 155.838 43.344 160.062 44.56C165.182 45.968 169.374 47.472 172.638 49.072C175.902 50.608 178.302 52.56 179.838 54.928C181.438 57.232 182.238 60.208 182.238 63.856C182.238 67.888 181.182 71.344 179.07 74.224C176.958 77.04 173.982 79.216 170.142 80.752C166.366 82.224 161.886 82.96 156.702 82.96ZM195.877 100.24C195.237 100.24 194.693 100.016 194.245 99.568C193.861 99.184 193.669 98.672 193.669 98.032V34.288C193.669 33.648 193.861 33.136 194.245 32.752C194.693 32.304 195.237 32.08 195.877 32.08H200.293C200.933 32.08 201.445 32.304 201.829 32.752C202.277 33.136 202.501 33.648 202.501 34.288V38.512C204.037 36.4 206.085 34.64 208.645 33.232C211.205 31.824 214.405 31.12 218.245 31.12C221.829 31.12 224.869 31.728 227.365 32.944C229.925 34.16 232.005 35.824 233.605 37.936C235.269 40.048 236.517 42.448 237.349 45.136C238.181 47.824 238.629 50.704 238.693 53.776C238.757 54.8 238.789 55.888 238.789 57.04C238.789 58.192 238.757 59.28 238.693 60.304C238.629 63.312 238.181 66.192 237.349 68.944C236.517 71.632 235.269 74.032 233.605 76.144C232.005 78.192 229.925 79.856 227.365 81.136C224.869 82.352 221.829 82.96 218.245 82.96C214.533 82.96 211.397 82.288 208.837 80.944C206.341 79.536 204.293 77.808 202.693 75.76V98.032C202.693 98.672 202.501 99.184 202.117 99.568C201.733 100.016 201.189 100.24 200.485 100.24H195.877ZM216.229 75.184C219.557 75.184 222.149 74.48 224.005 73.072C225.925 71.6 227.301 69.712 228.133 67.408C228.965 65.04 229.445 62.512 229.573 59.824C229.637 57.968 229.637 56.112 229.573 54.256C229.445 51.568 228.965 49.072 228.133 46.768C227.301 44.4 225.925 42.512 224.005 41.104C222.149 39.632 219.557 38.896 216.229 38.896C213.093 38.896 210.533 39.632 208.549 41.104C206.629 42.576 205.189 44.464 204.229 46.768C203.333 49.008 202.821 51.312 202.693 53.68C202.629 54.704 202.597 55.92 202.597 57.328C202.597 58.736 202.629 59.984 202.693 61.072C202.757 63.312 203.269 65.52 204.229 67.696C205.253 69.872 206.757 71.664 208.741 73.072C210.725 74.48 213.221 75.184 216.229 75.184ZM264.68 82.96C261.48 82.96 258.568 82.32 255.944 81.04C253.32 79.76 251.208 78.032 249.608 75.856C248.008 73.68 247.208 71.216 247.208 68.464C247.208 64.048 249 60.528 252.584 57.904C256.168 55.28 260.84 53.552 266.6 52.72L280.904 50.704V47.92C280.904 44.848 280.008 42.448 278.216 40.72C276.488 38.992 273.64 38.128 269.672 38.128C266.792 38.128 264.456 38.704 262.664 39.856C260.936 41.008 259.72 42.48 259.016 44.272C258.632 45.232 257.96 45.712 257 45.712H252.68C251.976 45.712 251.432 45.52 251.048 45.136C250.728 44.688 250.568 44.176 250.568 43.6C250.568 42.64 250.92 41.456 251.624 40.048C252.392 38.64 253.544 37.264 255.08 35.92C256.616 34.576 258.568 33.456 260.936 32.56C263.368 31.6 266.312 31.12 269.768 31.12C273.608 31.12 276.84 31.632 279.464 32.656C282.088 33.616 284.136 34.928 285.608 36.592C287.144 38.256 288.232 40.144 288.872 42.256C289.576 44.368 289.928 46.512 289.928 48.688V79.792C289.928 80.432 289.704 80.976 289.256 81.424C288.872 81.808 288.36 82 287.72 82H283.304C282.6 82 282.056 81.808 281.672 81.424C281.288 80.976 281.096 80.432 281.096 79.792V75.664C280.264 76.816 279.144 77.968 277.736 79.12C276.328 80.208 274.568 81.136 272.456 81.904C270.344 82.608 267.752 82.96 264.68 82.96ZM266.696 75.76C269.32 75.76 271.72 75.216 273.896 74.128C276.072 72.976 277.768 71.216 278.984 68.848C280.264 66.48 280.904 63.504 280.904 59.92V57.232L269.768 58.864C265.224 59.504 261.8 60.592 259.496 62.128C257.192 63.6 256.04 65.488 256.04 67.792C256.04 69.584 256.552 71.088 257.576 72.304C258.664 73.456 260.008 74.32 261.608 74.896C263.272 75.472 264.968 75.76 266.696 75.76ZM323.889 82.96C319.345 82.96 315.409 82.096 312.081 80.368C308.817 78.576 306.289 76.048 304.497 72.784C302.705 69.456 301.745 65.488 301.617 60.88C301.553 59.92 301.521 58.64 301.521 57.04C301.521 55.44 301.553 54.16 301.617 53.2C301.745 48.592 302.705 44.656 304.497 41.392C306.289 38.064 308.817 35.536 312.081 33.808C315.409 32.016 319.345 31.12 323.889 31.12C327.601 31.12 330.769 31.632 333.393 32.656C336.081 33.68 338.289 34.992 340.017 36.592C341.745 38.192 343.025 39.92 343.857 41.776C344.753 43.632 345.233 45.392 345.297 47.056C345.361 47.696 345.169 48.208 344.721 48.592C344.273 48.976 343.729 49.168 343.089 49.168H338.481C337.841 49.168 337.361 49.04 337.041 48.784C336.721 48.464 336.401 47.952 336.081 47.248C334.929 44.112 333.361 41.904 331.377 40.624C329.393 39.344 326.929 38.704 323.985 38.704C320.145 38.704 317.009 39.888 314.577 42.256C312.209 44.624 310.929 48.432 310.737 53.68C310.673 55.984 310.673 58.224 310.737 60.4C310.929 65.712 312.209 69.552 314.577 71.92C317.009 74.224 320.145 75.376 323.985 75.376C326.929 75.376 329.393 74.736 331.377 73.456C333.361 72.176 334.929 69.968 336.081 66.832C336.401 66.128 336.721 65.648 337.041 65.392C337.361 65.072 337.841 64.912 338.481 64.912H343.089C343.729 64.912 344.273 65.104 344.721 65.488C345.169 65.872 345.361 66.384 345.297 67.024C345.233 68.368 344.945 69.744 344.433 71.152C343.921 72.56 343.089 74 341.937 75.472C340.849 76.88 339.473 78.16 337.809 79.312C336.145 80.4 334.129 81.296 331.761 82C329.457 82.64 326.833 82.96 323.889 82.96ZM376.57 82.96C369.978 82.96 364.73 80.944 360.826 76.912C356.922 72.816 354.778 67.248 354.394 60.208C354.33 59.376 354.298 58.32 354.298 57.04C354.298 55.696 354.33 54.608 354.394 53.776C354.65 49.232 355.706 45.264 357.562 41.872C359.418 38.416 361.946 35.76 365.146 33.904C368.41 32.048 372.218 31.12 376.57 31.12C381.434 31.12 385.498 32.144 388.762 34.192C392.09 36.24 394.618 39.152 396.346 42.928C398.074 46.704 398.938 51.12 398.938 56.176V57.808C398.938 58.512 398.714 59.056 398.266 59.44C397.882 59.824 397.37 60.016 396.73 60.016H363.514C363.514 60.08 363.514 60.208 363.514 60.4C363.514 60.592 363.514 60.752 363.514 60.88C363.642 63.504 364.218 65.968 365.242 68.272C366.266 70.512 367.738 72.336 369.658 73.744C371.578 75.152 373.882 75.856 376.57 75.856C378.874 75.856 380.794 75.504 382.33 74.8C383.866 74.096 385.114 73.328 386.074 72.496C387.034 71.6 387.674 70.928 387.994 70.48C388.57 69.648 389.018 69.168 389.338 69.04C389.658 68.848 390.17 68.752 390.874 68.752H395.482C396.122 68.752 396.634 68.944 397.018 69.328C397.466 69.648 397.658 70.128 397.594 70.768C397.53 71.728 397.018 72.912 396.058 74.32C395.098 75.664 393.722 77.008 391.93 78.352C390.138 79.696 387.962 80.816 385.402 81.712C382.842 82.544 379.898 82.96 376.57 82.96ZM363.514 53.392H389.818V53.104C389.818 50.224 389.274 47.664 388.186 45.424C387.162 43.184 385.658 41.424 383.674 40.144C381.69 38.8 379.322 38.128 376.57 38.128C373.818 38.128 371.45 38.8 369.466 40.144C367.546 41.424 366.074 43.184 365.05 45.424C364.026 47.664 363.514 50.224 363.514 53.104V53.392ZM427.697 82.96C424.113 82.96 421.041 82.512 418.481 81.616C415.921 80.72 413.841 79.632 412.241 78.352C410.641 77.072 409.425 75.792 408.593 74.512C407.825 73.232 407.409 72.208 407.345 71.44C407.281 70.736 407.505 70.192 408.017 69.808C408.529 69.424 409.041 69.232 409.553 69.232H413.777C414.161 69.232 414.449 69.296 414.641 69.424C414.897 69.488 415.217 69.744 415.601 70.192C416.433 71.088 417.361 71.984 418.385 72.88C419.409 73.776 420.657 74.512 422.129 75.088C423.665 75.664 425.553 75.952 427.793 75.952C431.057 75.952 433.745 75.344 435.857 74.128C437.969 72.848 439.025 70.992 439.025 68.56C439.025 66.96 438.577 65.68 437.681 64.72C436.849 63.76 435.313 62.896 433.073 62.128C430.897 61.36 427.889 60.56 424.049 59.728C420.209 58.832 417.169 57.744 414.929 56.464C412.689 55.12 411.089 53.552 410.129 51.76C409.169 49.904 408.689 47.824 408.689 45.52C408.689 43.152 409.393 40.88 410.801 38.704C412.209 36.464 414.257 34.64 416.945 33.232C419.697 31.824 423.121 31.12 427.217 31.12C430.545 31.12 433.393 31.536 435.761 32.368C438.129 33.2 440.081 34.256 441.617 35.536C443.153 36.752 444.305 37.968 445.073 39.184C445.841 40.4 446.257 41.424 446.321 42.256C446.385 42.896 446.193 43.44 445.745 43.888C445.297 44.272 444.785 44.464 444.209 44.464H440.177C439.729 44.464 439.345 44.368 439.025 44.176C438.769 43.984 438.513 43.76 438.257 43.504C437.617 42.672 436.849 41.84 435.953 41.008C435.121 40.176 434.001 39.504 432.593 38.992C431.249 38.416 429.457 38.128 427.217 38.128C424.017 38.128 421.617 38.8 420.017 40.144C418.417 41.488 417.617 43.184 417.617 45.232C417.617 46.448 417.969 47.536 418.673 48.496C419.377 49.456 420.721 50.32 422.705 51.088C424.689 51.856 427.633 52.688 431.536 53.584C435.761 54.416 439.089 55.536 441.521 56.944C443.953 58.352 445.681 59.984 446.705 61.84C447.729 63.696 448.241 65.84 448.241 68.272C448.241 70.96 447.441 73.424 445.841 75.664C444.305 77.904 442.001 79.696 438.929 81.04C435.921 82.32 432.177 82.96 427.697 82.96Z" fill="black"/>
</svg>
